<mxfile host="app.diagrams.net" modified="2022-02-21T20:02:01.817Z" agent="5.0 (Macintosh; Intel Mac OS X 10_15_7) AppleWebKit/605.1.15 (KHTML, like Gecko) Version/15.1 Safari/605.1.15" etag="xRa2OCUnslywHvLv4-8I" version="16.6.1" type="github">
  <diagram id="C5RBs43oDa-KdzZeNtuy" name="Page-1">
    <mxGraphModel dx="2061" dy="825" grid="1" gridSize="10" guides="1" tooltips="1" connect="1" arrows="1" fold="1" page="1" pageScale="1" pageWidth="827" pageHeight="1169" math="0" shadow="0">
      <root>
        <mxCell id="WIyWlLk6GJQsqaUBKTNV-0" />
        <mxCell id="WIyWlLk6GJQsqaUBKTNV-1" parent="WIyWlLk6GJQsqaUBKTNV-0" />
        <mxCell id="WIyWlLk6GJQsqaUBKTNV-2" value="" style="rounded=0;html=1;jettySize=auto;orthogonalLoop=1;fontSize=11;endArrow=block;endFill=0;endSize=8;strokeWidth=1;shadow=0;labelBackgroundColor=none;edgeStyle=orthogonalEdgeStyle;entryX=0.5;entryY=0;entryDx=0;entryDy=0;exitX=0.5;exitY=1;exitDx=0;exitDy=0;" parent="WIyWlLk6GJQsqaUBKTNV-1" source="A1uX-iFA1mEM3rG-qTQ3-42" target="A1uX-iFA1mEM3rG-qTQ3-0" edge="1">
          <mxGeometry relative="1" as="geometry">
            <mxPoint x="219.9655172413793" y="120" as="sourcePoint" />
            <mxPoint x="220" y="160" as="targetPoint" />
          </mxGeometry>
        </mxCell>
        <mxCell id="WIyWlLk6GJQsqaUBKTNV-8" value="No" style="rounded=0;html=1;jettySize=auto;orthogonalLoop=1;fontSize=11;endArrow=block;endFill=0;endSize=8;strokeWidth=1;shadow=0;labelBackgroundColor=none;edgeStyle=orthogonalEdgeStyle;exitX=0.5;exitY=1;exitDx=0;exitDy=0;" parent="WIyWlLk6GJQsqaUBKTNV-1" source="A1uX-iFA1mEM3rG-qTQ3-28" target="A1uX-iFA1mEM3rG-qTQ3-30" edge="1">
          <mxGeometry x="0.3333" y="20" relative="1" as="geometry">
            <mxPoint as="offset" />
            <mxPoint x="520" y="480" as="sourcePoint" />
            <mxPoint x="511" y="470" as="targetPoint" />
          </mxGeometry>
        </mxCell>
        <mxCell id="WIyWlLk6GJQsqaUBKTNV-12" value="&lt;font style=&quot;font-size: 14px&quot;&gt;Retry Number-1&lt;/font&gt;" style="rounded=1;whiteSpace=wrap;html=1;fontSize=12;glass=0;strokeWidth=1;shadow=0;" parent="WIyWlLk6GJQsqaUBKTNV-1" vertex="1">
          <mxGeometry x="161.12" y="500" width="138.88" height="40" as="geometry" />
        </mxCell>
        <mxCell id="BOsILFHd8SZsDkAcz8fm-14" value="" style="edgeStyle=orthogonalEdgeStyle;rounded=0;orthogonalLoop=1;jettySize=auto;html=1;fontSize=18;endArrow=block;endFill=0;endSize=9;" parent="WIyWlLk6GJQsqaUBKTNV-1" source="A1uX-iFA1mEM3rG-qTQ3-0" target="A1uX-iFA1mEM3rG-qTQ3-42" edge="1">
          <mxGeometry relative="1" as="geometry" />
        </mxCell>
        <mxCell id="A1uX-iFA1mEM3rG-qTQ3-0" value="&lt;font style=&quot;font-size: 14px&quot;&gt;Setting sim_step and emission_path&amp;nbsp;&lt;/font&gt;" style="rounded=1;whiteSpace=wrap;html=1;" parent="WIyWlLk6GJQsqaUBKTNV-1" vertex="1">
          <mxGeometry x="157.5" y="150" width="125" height="50" as="geometry" />
        </mxCell>
        <mxCell id="BOsILFHd8SZsDkAcz8fm-4" style="edgeStyle=orthogonalEdgeStyle;rounded=0;orthogonalLoop=1;jettySize=auto;html=1;exitX=1;exitY=0.5;exitDx=0;exitDy=0;entryX=0;entryY=0.5;entryDx=0;entryDy=0;fontSize=14;endArrow=block;endFill=0;endSize=9;" parent="WIyWlLk6GJQsqaUBKTNV-1" source="A1uX-iFA1mEM3rG-qTQ3-2" target="BOsILFHd8SZsDkAcz8fm-0" edge="1">
          <mxGeometry relative="1" as="geometry" />
        </mxCell>
        <mxCell id="BOsILFHd8SZsDkAcz8fm-5" style="edgeStyle=orthogonalEdgeStyle;rounded=0;orthogonalLoop=1;jettySize=auto;html=1;exitX=0.5;exitY=1;exitDx=0;exitDy=0;fontSize=14;endArrow=block;endFill=0;endSize=9;entryX=0.5;entryY=0;entryDx=0;entryDy=0;" parent="WIyWlLk6GJQsqaUBKTNV-1" source="A1uX-iFA1mEM3rG-qTQ3-2" target="BOsILFHd8SZsDkAcz8fm-8" edge="1">
          <mxGeometry relative="1" as="geometry">
            <mxPoint x="220" y="370" as="targetPoint" />
          </mxGeometry>
        </mxCell>
        <mxCell id="A1uX-iFA1mEM3rG-qTQ3-2" value="&lt;font style=&quot;font-size: 14px&quot;&gt;Retry number&amp;gt;0?&lt;/font&gt;" style="rhombus;whiteSpace=wrap;html=1;" parent="WIyWlLk6GJQsqaUBKTNV-1" vertex="1">
          <mxGeometry x="175.63" y="220" width="88.75" height="90" as="geometry" />
        </mxCell>
        <mxCell id="A1uX-iFA1mEM3rG-qTQ3-3" value="" style="rounded=0;html=1;jettySize=auto;orthogonalLoop=1;fontSize=11;endArrow=block;endFill=0;endSize=8;strokeWidth=1;shadow=0;labelBackgroundColor=none;edgeStyle=orthogonalEdgeStyle;entryX=0.5;entryY=0;entryDx=0;entryDy=0;" parent="WIyWlLk6GJQsqaUBKTNV-1" source="A1uX-iFA1mEM3rG-qTQ3-0" target="A1uX-iFA1mEM3rG-qTQ3-2" edge="1">
          <mxGeometry relative="1" as="geometry">
            <mxPoint x="219.5" y="210" as="sourcePoint" />
            <mxPoint x="219.5" y="240" as="targetPoint" />
          </mxGeometry>
        </mxCell>
        <mxCell id="A1uX-iFA1mEM3rG-qTQ3-18" value="" style="rounded=0;html=1;jettySize=auto;orthogonalLoop=1;fontSize=11;endArrow=block;endFill=0;endSize=8;strokeWidth=1;shadow=0;labelBackgroundColor=none;edgeStyle=orthogonalEdgeStyle;exitX=0.5;exitY=1;exitDx=0;exitDy=0;entryX=0.5;entryY=0;entryDx=0;entryDy=0;" parent="WIyWlLk6GJQsqaUBKTNV-1" source="A1uX-iFA1mEM3rG-qTQ3-32" target="A1uX-iFA1mEM3rG-qTQ3-19" edge="1">
          <mxGeometry relative="1" as="geometry">
            <mxPoint x="511" y="130" as="sourcePoint" />
            <mxPoint x="511" y="170" as="targetPoint" />
          </mxGeometry>
        </mxCell>
        <mxCell id="A1uX-iFA1mEM3rG-qTQ3-19" value="&lt;font style=&quot;font-size: 14px&quot;&gt;Setting SUMO Port&lt;/font&gt;" style="rounded=1;whiteSpace=wrap;html=1;" parent="WIyWlLk6GJQsqaUBKTNV-1" vertex="1">
          <mxGeometry x="476.5" y="150" width="83.5" height="40" as="geometry" />
        </mxCell>
        <mxCell id="A1uX-iFA1mEM3rG-qTQ3-21" value="" style="rounded=0;html=1;jettySize=auto;orthogonalLoop=1;fontSize=11;endArrow=block;endFill=0;endSize=8;strokeWidth=1;shadow=0;labelBackgroundColor=none;edgeStyle=orthogonalEdgeStyle;exitX=0.5;exitY=1;exitDx=0;exitDy=0;entryX=0.5;entryY=0;entryDx=0;entryDy=0;" parent="WIyWlLk6GJQsqaUBKTNV-1" source="A1uX-iFA1mEM3rG-qTQ3-19" target="A1uX-iFA1mEM3rG-qTQ3-22" edge="1">
          <mxGeometry relative="1" as="geometry">
            <mxPoint x="510.66" y="210" as="sourcePoint" />
            <mxPoint x="510.66000000000025" y="230" as="targetPoint" />
            <Array as="points" />
          </mxGeometry>
        </mxCell>
        <mxCell id="A1uX-iFA1mEM3rG-qTQ3-22" value="&lt;font style=&quot;font-size: 14px&quot;&gt;Setting the SUMO_CALL&lt;/font&gt;" style="rounded=1;whiteSpace=wrap;html=1;" parent="WIyWlLk6GJQsqaUBKTNV-1" vertex="1">
          <mxGeometry x="476.5" y="220" width="88.5" height="35" as="geometry" />
        </mxCell>
        <mxCell id="A1uX-iFA1mEM3rG-qTQ3-24" value="&lt;font style=&quot;font-size: 14px&quot;&gt;Open the I/O Thread to SUMO&amp;nbsp;&lt;/font&gt;" style="rounded=1;whiteSpace=wrap;html=1;" parent="WIyWlLk6GJQsqaUBKTNV-1" vertex="1">
          <mxGeometry x="479" y="290" width="91" height="50" as="geometry" />
        </mxCell>
        <mxCell id="A1uX-iFA1mEM3rG-qTQ3-25" value="" style="rounded=0;html=1;jettySize=auto;orthogonalLoop=1;fontSize=11;endArrow=block;endFill=0;endSize=8;strokeWidth=1;shadow=0;labelBackgroundColor=none;edgeStyle=orthogonalEdgeStyle;exitX=0.5;exitY=1;exitDx=0;exitDy=0;entryX=0.5;entryY=0;entryDx=0;entryDy=0;" parent="WIyWlLk6GJQsqaUBKTNV-1" source="A1uX-iFA1mEM3rG-qTQ3-22" target="A1uX-iFA1mEM3rG-qTQ3-24" edge="1">
          <mxGeometry relative="1" as="geometry">
            <mxPoint x="521.0000000000002" y="190" as="sourcePoint" />
            <mxPoint x="521.0000000000002" y="220" as="targetPoint" />
            <Array as="points" />
          </mxGeometry>
        </mxCell>
        <mxCell id="A1uX-iFA1mEM3rG-qTQ3-27" value="" style="rounded=0;html=1;jettySize=auto;orthogonalLoop=1;fontSize=11;endArrow=block;endFill=0;endSize=8;strokeWidth=1;shadow=0;labelBackgroundColor=none;edgeStyle=orthogonalEdgeStyle;exitX=0.5;exitY=1;exitDx=0;exitDy=0;" parent="WIyWlLk6GJQsqaUBKTNV-1" source="A1uX-iFA1mEM3rG-qTQ3-24" target="A1uX-iFA1mEM3rG-qTQ3-28" edge="1">
          <mxGeometry relative="1" as="geometry">
            <mxPoint x="519.6600000000002" y="320" as="sourcePoint" />
            <mxPoint x="516" y="339.9999999999999" as="targetPoint" />
            <Array as="points" />
          </mxGeometry>
        </mxCell>
        <mxCell id="A1uX-iFA1mEM3rG-qTQ3-28" value="&lt;font style=&quot;font-size: 14px&quot;&gt;Time outï¼Ÿ&lt;/font&gt;" style="rhombus;whiteSpace=wrap;html=1;" parent="WIyWlLk6GJQsqaUBKTNV-1" vertex="1">
          <mxGeometry x="480.75" y="380" width="80" height="80" as="geometry" />
        </mxCell>
        <mxCell id="A1uX-iFA1mEM3rG-qTQ3-29" value="&lt;font style=&quot;font-size: 18px&quot;&gt;End&amp;nbsp;&lt;/font&gt;" style="whiteSpace=wrap;html=1;" parent="WIyWlLk6GJQsqaUBKTNV-1" vertex="1">
          <mxGeometry x="480.75" y="550" width="89" height="30" as="geometry" />
        </mxCell>
        <mxCell id="A1uX-iFA1mEM3rG-qTQ3-30" value="&lt;font style=&quot;font-size: 14px&quot;&gt;Connection Succeeded&lt;/font&gt;" style="rounded=1;whiteSpace=wrap;html=1;" parent="WIyWlLk6GJQsqaUBKTNV-1" vertex="1">
          <mxGeometry x="477.75" y="490" width="86" height="30" as="geometry" />
        </mxCell>
        <mxCell id="A1uX-iFA1mEM3rG-qTQ3-31" value="" style="rounded=0;html=1;jettySize=auto;orthogonalLoop=1;fontSize=11;endArrow=block;endFill=0;endSize=8;strokeWidth=1;shadow=0;labelBackgroundColor=none;edgeStyle=orthogonalEdgeStyle;entryX=0.5;entryY=0;entryDx=0;entryDy=0;exitX=0.5;exitY=1;exitDx=0;exitDy=0;" parent="WIyWlLk6GJQsqaUBKTNV-1" source="A1uX-iFA1mEM3rG-qTQ3-30" target="A1uX-iFA1mEM3rG-qTQ3-29" edge="1">
          <mxGeometry relative="1" as="geometry">
            <mxPoint x="495" y="450" as="sourcePoint" />
            <mxPoint x="570" y="489.9999999999999" as="targetPoint" />
            <Array as="points" />
          </mxGeometry>
        </mxCell>
        <mxCell id="A1uX-iFA1mEM3rG-qTQ3-32" value="&lt;span&gt;&lt;font style=&quot;font-size: 14px&quot;&gt;Try Conection&lt;/font&gt;&lt;/span&gt;" style="rounded=1;whiteSpace=wrap;html=1;" parent="WIyWlLk6GJQsqaUBKTNV-1" vertex="1">
          <mxGeometry x="471" y="90" width="89" height="30" as="geometry" />
        </mxCell>
        <mxCell id="A1uX-iFA1mEM3rG-qTQ3-39" value="Yes" style="edgeStyle=orthogonalEdgeStyle;rounded=0;html=1;jettySize=auto;orthogonalLoop=1;fontSize=11;endArrow=block;endFill=0;endSize=8;strokeWidth=1;shadow=0;labelBackgroundColor=none;exitX=0;exitY=0.5;exitDx=0;exitDy=0;entryX=1;entryY=0.5;entryDx=0;entryDy=0;" parent="WIyWlLk6GJQsqaUBKTNV-1" source="A1uX-iFA1mEM3rG-qTQ3-28" target="WIyWlLk6GJQsqaUBKTNV-12" edge="1">
          <mxGeometry x="0.1015" y="-20" relative="1" as="geometry">
            <mxPoint as="offset" />
            <mxPoint x="239.9999999999999" y="365.0000000000001" as="sourcePoint" />
            <mxPoint x="453.5" y="200" as="targetPoint" />
            <Array as="points">
              <mxPoint x="460" y="420" />
              <mxPoint x="460" y="520" />
            </Array>
          </mxGeometry>
        </mxCell>
        <mxCell id="A1uX-iFA1mEM3rG-qTQ3-40" value="" style="rounded=0;html=1;jettySize=auto;orthogonalLoop=1;fontSize=11;endArrow=block;endFill=0;endSize=8;strokeWidth=1;shadow=0;labelBackgroundColor=none;edgeStyle=orthogonalEdgeStyle;exitX=0;exitY=0.5;exitDx=0;exitDy=0;entryX=0;entryY=0.5;entryDx=0;entryDy=0;" parent="WIyWlLk6GJQsqaUBKTNV-1" source="WIyWlLk6GJQsqaUBKTNV-12" target="A1uX-iFA1mEM3rG-qTQ3-2" edge="1">
          <mxGeometry relative="1" as="geometry">
            <mxPoint x="79.99999999999989" y="410.0000000000001" as="sourcePoint" />
            <mxPoint x="123" y="250" as="targetPoint" />
            <Array as="points">
              <mxPoint x="123" y="520" />
              <mxPoint x="123" y="265" />
            </Array>
          </mxGeometry>
        </mxCell>
        <mxCell id="A1uX-iFA1mEM3rG-qTQ3-41" value="SUMO_CALL is a commend is used to start SUMO&amp;nbsp;" style="text;html=1;align=center;verticalAlign=middle;resizable=0;points=[];autosize=1;strokeColor=none;fillColor=none;" parent="WIyWlLk6GJQsqaUBKTNV-1" vertex="1">
          <mxGeometry x="600" y="290" width="290" height="20" as="geometry" />
        </mxCell>
        <mxCell id="A1uX-iFA1mEM3rG-qTQ3-42" value="&lt;font style=&quot;font-size: 14px&quot;&gt;Start&lt;/font&gt;" style="whiteSpace=wrap;html=1;" parent="WIyWlLk6GJQsqaUBKTNV-1" vertex="1">
          <mxGeometry x="167.75" y="80" width="104.5" height="40" as="geometry" />
        </mxCell>
        <mxCell id="BOsILFHd8SZsDkAcz8fm-10" style="edgeStyle=orthogonalEdgeStyle;rounded=0;orthogonalLoop=1;jettySize=auto;html=1;exitX=0.5;exitY=1;exitDx=0;exitDy=0;entryX=1;entryY=0.5;entryDx=0;entryDy=0;fontSize=14;endArrow=block;endFill=0;endSize=9;" parent="WIyWlLk6GJQsqaUBKTNV-1" source="BOsILFHd8SZsDkAcz8fm-0" target="BOsILFHd8SZsDkAcz8fm-8" edge="1">
          <mxGeometry relative="1" as="geometry" />
        </mxCell>
        <mxCell id="BOsILFHd8SZsDkAcz8fm-12" style="edgeStyle=orthogonalEdgeStyle;rounded=0;orthogonalLoop=1;jettySize=auto;html=1;entryX=0;entryY=0.5;entryDx=0;entryDy=0;fontSize=14;endArrow=block;endFill=0;endSize=9;" parent="WIyWlLk6GJQsqaUBKTNV-1" source="BOsILFHd8SZsDkAcz8fm-0" target="A1uX-iFA1mEM3rG-qTQ3-32" edge="1">
          <mxGeometry relative="1" as="geometry" />
        </mxCell>
        <mxCell id="BOsILFHd8SZsDkAcz8fm-0" value="Connection Succeeded?" style="rhombus;whiteSpace=wrap;html=1;fontSize=14;" parent="WIyWlLk6GJQsqaUBKTNV-1" vertex="1">
          <mxGeometry x="320" y="220" width="102.25" height="90" as="geometry" />
        </mxCell>
        <mxCell id="BOsILFHd8SZsDkAcz8fm-3" value="Yes" style="text;html=1;align=center;verticalAlign=middle;resizable=0;points=[];autosize=1;strokeColor=none;fillColor=none;fontSize=14;" parent="WIyWlLk6GJQsqaUBKTNV-1" vertex="1">
          <mxGeometry x="300" y="280" width="40" height="20" as="geometry" />
        </mxCell>
        <mxCell id="BOsILFHd8SZsDkAcz8fm-6" value="No" style="text;html=1;align=center;verticalAlign=middle;resizable=0;points=[];autosize=1;strokeColor=none;fillColor=none;fontSize=14;" parent="WIyWlLk6GJQsqaUBKTNV-1" vertex="1">
          <mxGeometry x="185" y="320" width="30" height="20" as="geometry" />
        </mxCell>
        <mxCell id="BOsILFHd8SZsDkAcz8fm-8" value="&lt;font style=&quot;font-size: 14px&quot;&gt;End&amp;nbsp;&lt;/font&gt;" style="whiteSpace=wrap;html=1;" parent="WIyWlLk6GJQsqaUBKTNV-1" vertex="1">
          <mxGeometry x="175.63" y="405" width="89" height="30" as="geometry" />
        </mxCell>
        <mxCell id="BOsILFHd8SZsDkAcz8fm-11" value="Yes" style="text;html=1;align=center;verticalAlign=middle;resizable=0;points=[];autosize=1;strokeColor=none;fillColor=none;fontSize=14;" parent="WIyWlLk6GJQsqaUBKTNV-1" vertex="1">
          <mxGeometry x="300" y="390" width="40" height="20" as="geometry" />
        </mxCell>
        <mxCell id="BOsILFHd8SZsDkAcz8fm-13" value="No" style="text;html=1;align=center;verticalAlign=middle;resizable=0;points=[];autosize=1;strokeColor=none;fillColor=none;fontSize=14;" parent="WIyWlLk6GJQsqaUBKTNV-1" vertex="1">
          <mxGeometry x="414" y="215" width="30" height="20" as="geometry" />
        </mxCell>
        <mxCell id="BOsILFHd8SZsDkAcz8fm-15" value="Retry number is set to 10" style="text;html=1;align=center;verticalAlign=middle;resizable=0;points=[];autosize=1;strokeColor=none;fillColor=none;fontSize=14;" parent="WIyWlLk6GJQsqaUBKTNV-1" vertex="1">
          <mxGeometry x="-35" y="240" width="170" height="20" as="geometry" />
        </mxCell>
      </root>
    </mxGraphModel>
  </diagram>
</mxfile>
